<svg width="29" height="21" viewBox="0 0 29 21" fill="none" xmlns="http://www.w3.org/2000/svg">
<path d="M28.5065 2.83178L10.6656 20.5125C10.5102 20.667 10.3256 20.7896 10.1223 20.8733C9.91897 20.9569 9.701 21 9.48086 21C9.26073 21 9.04276 20.9569 8.83945 20.8733C8.63615 20.7896 8.4515 20.667 8.29612 20.5125L0.490737 12.7772C0.335154 12.623 0.211739 12.4399 0.127538 12.2385C0.0433376 12.037 2.31837e-09 11.8211 0 11.6031C-2.31837e-09 11.385 0.0433376 11.1691 0.127538 10.9676C0.211739 10.7662 0.335154 10.5831 0.490737 10.429C0.64632 10.2748 0.831024 10.1525 1.0343 10.069C1.23758 9.98557 1.45546 9.94262 1.67548 9.94262C1.89551 9.94262 2.11338 9.98557 2.31666 10.069C2.51994 10.1525 2.70464 10.2748 2.86023 10.429L9.48225 16.9915L26.1398 0.486331C26.454 0.174938 26.8801 0 27.3245 0C27.7689 0 28.195 0.174938 28.5093 0.486331C28.8235 0.797724 29 1.22006 29 1.66044C29 2.10082 28.8235 2.52316 28.5093 2.83455L28.5065 2.83178Z" fill="white"/>
</svg>
